<svg id="SvgjsSvg1001" width="288" height="288" xmlns="http://www.w3.org/2000/svg" version="1.1" xmlns:xlink="http://www.w3.org/1999/xlink" xmlns:svgjs="http://svgjs.com/svgjs"><defs id="SvgjsDefs1002"></defs><g id="SvgjsG1008"><svg xmlns="http://www.w3.org/2000/svg" viewBox="0 0 48 48" width="288" height="288"><path fill="#98c379" d="m9.5 6c-1.913 0-3.5 1.587-3.5 3.5v29c0 1.913 1.587 3.5 3.5 3.5h29c1.913 0 3.5-1.587 3.5-3.5v-29c0-1.913-1.587-3.5-3.5-3.5m-29 3h29c .303 0 .5.197.5.5v20.5h-30v-20.5c0-.303.197-.5.5-.5m-.5 24h14v6h-13.5c-.303 0-.5-.197-.5-.5m16-5.5h14v5.5c0 .303-.197.5-.5.5h-13.5" class="colorececec svgShape"></path></svg></g></svg>